<svg xmlns="http://www.w3.org/2000/svg" xmlns:xlink="http://www.w3.org/1999/xlink" preserveAspectRatio="xMidYMid" width="24" height="24" viewBox="0 0 24 24">
  <defs>
    <style>
      .cls-1 {
        fill: #333;
        fill-rule: evenodd;
      }
    </style>
  </defs>
  <path d="M11.998,0.000 C5.371,0.000 -0.001,5.372 -0.001,12.000 C-0.001,18.627 5.371,23.999 11.998,23.999 C18.625,23.999 23.997,18.627 23.997,12.000 C23.997,5.372 18.625,0.000 11.998,0.000 ZM15.813,7.092 L14.430,7.093 C13.345,7.093 13.136,7.608 13.136,8.365 L13.136,10.032 L15.722,10.032 L15.721,12.644 L13.136,12.644 L13.136,19.346 L10.438,19.346 L10.438,12.644 L8.184,12.644 L8.184,10.032 L10.438,10.032 L10.438,8.106 C10.438,5.871 11.804,4.653 13.798,4.653 L15.813,4.656 L15.813,7.092 L15.813,7.092 Z" class="cls-1"/>
</svg>
