<svg xmlns="http://www.w3.org/2000/svg" xmlns:xlink="http://www.w3.org/1999/xlink" preserveAspectRatio="xMidYMid" width="24" height="24" viewBox="0 0 24 24">
  <defs>
    <style>
      .cls-1 {
        fill: #333;
        fill-rule: evenodd;
      }
    </style>
  </defs>
  <path d="M11.999,-0.003 C5.372,-0.003 -0.003,5.372 -0.003,12.000 C-0.003,18.628 5.372,24.003 11.999,24.003 C18.627,24.003 24.002,18.628 24.002,12.000 C24.002,5.372 18.627,-0.003 11.999,-0.003 ZM8.802,17.630 L6.123,17.630 L6.123,9.568 L8.802,9.568 L8.802,17.630 ZM7.463,8.467 L7.445,8.467 C6.546,8.467 5.964,7.848 5.964,7.075 C5.964,6.284 6.564,5.682 7.480,5.682 C8.397,5.682 8.961,6.284 8.979,7.075 C8.979,7.848 8.397,8.467 7.463,8.467 ZM18.465,17.630 L15.785,17.630 L15.785,13.317 C15.785,12.233 15.397,11.494 14.428,11.494 C13.687,11.494 13.247,11.993 13.053,12.474 C12.982,12.646 12.965,12.887 12.965,13.128 L12.965,17.630 L10.285,17.630 C10.285,17.630 10.320,10.325 10.285,9.568 L12.965,9.568 L12.965,10.710 C13.321,10.160 13.958,9.379 15.380,9.379 C17.143,9.379 18.465,10.531 18.465,13.008 L18.465,17.630 Z" class="cls-1"/>
</svg>
