<svg xmlns="http://www.w3.org/2000/svg" xmlns:xlink="http://www.w3.org/1999/xlink" preserveAspectRatio="xMidYMid" width="24" height="24" viewBox="0 0 24 24">
  <defs>
    <style>
      .cls-1 {
        fill: #333;
        fill-rule: evenodd;
      }
    </style>
  </defs>
  <path d="M12.000,24.003 C5.372,24.003 -0.003,18.628 -0.003,12.000 C-0.003,5.372 5.372,-0.003 12.000,-0.003 C18.628,-0.003 24.002,5.372 24.002,12.000 C24.002,18.628 18.628,24.003 12.000,24.003 ZM19.983,8.309 C19.961,8.286 19.925,8.278 19.895,8.291 C19.447,8.470 18.974,8.598 18.488,8.675 C19.005,8.325 19.389,7.841 19.586,7.286 C19.596,7.260 19.585,7.231 19.562,7.213 C19.537,7.196 19.504,7.194 19.477,7.208 C18.896,7.518 18.266,7.737 17.606,7.858 C17.019,7.311 16.201,6.998 15.355,6.998 C13.633,6.998 12.232,8.259 12.232,9.809 C12.232,9.996 12.252,10.182 12.292,10.362 C9.907,10.229 7.677,9.199 6.161,7.525 C6.145,7.508 6.122,7.498 6.097,7.500 C6.073,7.502 6.051,7.514 6.039,7.533 C5.762,7.961 5.616,8.449 5.616,8.946 C5.616,9.808 6.051,10.614 6.791,11.145 C6.410,11.104 6.038,10.996 5.702,10.828 C5.679,10.817 5.651,10.817 5.628,10.829 C5.606,10.841 5.592,10.862 5.591,10.886 L5.591,10.921 C5.591,12.159 6.497,13.246 7.786,13.606 C7.446,13.656 7.094,13.652 6.748,13.593 C6.722,13.589 6.696,13.596 6.678,13.614 C6.661,13.632 6.655,13.657 6.663,13.679 C7.049,14.765 8.124,15.527 9.373,15.621 C8.331,16.309 7.098,16.671 5.796,16.671 C5.556,16.671 5.314,16.659 5.078,16.634 C5.044,16.630 5.010,16.648 4.999,16.677 C4.987,16.707 4.999,16.740 5.028,16.757 C6.438,17.570 8.067,18.000 9.741,18.000 C15.216,18.000 18.488,13.997 18.488,10.127 C18.488,10.019 18.486,9.912 18.481,9.805 C19.072,9.416 19.578,8.940 19.987,8.389 C20.006,8.364 20.004,8.332 19.983,8.309 Z" class="cls-1"/>
</svg>
